<?xml version="1.0"?>
<svg viewBox="0 0 413 269" xmlns="http://www.w3.org/2000/svg"  version="1.1" xmlns:xlink="http://www.w3.org/1999/xlink">
    <desc> SVG file generated using the GuidoEngine version 1.7.0</desc>
    <g style="stroke:#000000; stroke-opacity:1">
        <g transform="scale(0.124628, 0.124628)">
            <g transform="translate(-0, -0)">
            </g>
            <g transform="translate(474.213, 474.213)">
            </g>
            <g transform="translate(474.213, 709.213)">
                <polygon points="-16.5 0  -16.5 0  -24.5096 8.86234  -30.6568 20.2923  -35.1192 34.0543  -38.0744 49.9127  -39.7 67.632  -40.1736 86.9766  -39.6728 107.711  -38.3752 129.599  -36.4584 152.406  -34.1 175.896  -31.4776 199.833  -28.7688 223.982  -26.1512 248.107  -23.8024 271.973  -21.9 295.344  -20.6216 317.984  -20.1448 339.658  -20.6472 360.131  -22.3064 379.166  -25.3 396.528  -29.8056 411.982  -36.0008 425.291  -44.0632 436.221  -54.1704 444.536  -66.5 450  -66.5 450  -66.5 450  -56.7624 444.536  -49.0312 436.221  -43.1288 425.291  -38.8776 411.982  -36.1 396.528  -34.6184 379.166  -34.2552 360.131  -34.8328 339.658  -36.1736 317.984  -38.1 295.344  -40.4344 271.973  -42.9992 248.107  -45.6168 223.982  -48.1096 199.833  -50.3 175.896  -52.0104 152.406  -53.0632 129.599  -53.2808 107.711  -52.4856 86.9766  -50.5 67.632  -47.1464 49.9127  -42.2472 34.0542  -35.6248 20.2922  -27.1016 8.8623  -16.5 0  "></polygon>
                <polygon points="-16.5 900  -16.5 900  -24.5096 891.138  -30.6568 879.708  -35.1192 865.946  -38.0744 850.087  -39.7 832.368  -40.1736 813.023  -39.6728 792.289  -38.3752 770.401  -36.4584 747.594  -34.1 724.104  -31.4776 700.167  -28.7688 676.018  -26.1512 651.893  -23.8024 628.027  -21.9 604.656  -20.6216 582.016  -20.1448 560.342  -20.6472 539.869  -22.3064 520.834  -25.3 503.472  -29.8056 488.018  -36.0008 474.709  -44.0632 463.779  -54.1704 455.464  -66.5 450  -66.5 450  -66.5 450  -56.7624 455.464  -49.0312 463.779  -43.1288 474.709  -38.8776 488.018  -36.1 503.472  -34.6184 520.834  -34.2552 539.869  -34.8328 560.342  -36.1736 582.016  -38.1 604.656  -40.4344 628.027  -42.9992 651.893  -45.6168 676.018  -48.1096 700.167  -50.3 724.104  -52.0104 747.594  -53.0632 770.401  -53.2808 792.289  -52.4856 813.023  -50.5 832.368  -47.1464 850.087  -42.2472 865.946  -35.6248 879.708  -27.1016 891.138  -16.5 900  "></polygon>
                <g style="stroke-width:4">
                    <line x1="0" y1="0" x2="1353.68" y2="0"></line>
                    <line x1="0" y1="50" x2="1353.68" y2="50"></line>
                    <line x1="0" y1="100" x2="1353.68" y2="100"></line>
                    <line x1="0" y1="150" x2="1353.68" y2="150"></line>
                    <line x1="0" y1="200" x2="1353.68" y2="200"></line>
                    <line x1="1353.68" y1="0" x2="1459.06" y2="0"></line>
                    <line x1="1353.68" y1="50" x2="1459.06" y2="50"></line>
                    <line x1="1353.68" y1="100" x2="1459.06" y2="100"></line>
                    <line x1="1353.68" y1="150" x2="1459.06" y2="150"></line>
                    <line x1="1353.68" y1="200" x2="1459.06" y2="200"></line>
                </g>
            </g>
            <g transform="translate(474.213, 709.213)">
                <g font-family="Guido2">
                    <text x="56.9332" y="200"  font-size="200">&#38;</text>
                    <text x="256.132" y="50"  font-size="200">&#50;</text>
                    <text x="257.132" y="150"  font-size="200">&#52;</text>
                    <polygon points="479.898 -235  479.898 -212.5  694.414 -191.048  694.414 -213.548  "></polygon>
                    <polygon points="479.898 -232.5  479.898 -212.5  694.414 -191.348  694.414 -211.348  "></polygon>
                    <polygon points="479.898 -195  479.898 -175  694.414 -153.848  694.414 -173.848  "></polygon>
                    <polygon points="479.898 -157.5  479.898 -137.5  529.898 -132.5  529.898 -152.5  "></polygon>
                    <text x="424.132" y="-25"  font-size="200">&#88;</text>
                    <text x="424.132" y="-33.3333"  font-size="200">&#120;</text>
                    <text x="424.132" y="-50"  font-size="200">&#120;</text>
                    <text x="424.132" y="-75"  font-size="200">&#120;</text>
                    <text x="424.132" y="-100"  font-size="200">&#120;</text>
                    <text x="424.132" y="-125"  font-size="200">&#120;</text>
                    <text x="424.132" y="-150"  font-size="200">&#120;</text>
                    <text x="424.132" y="-175"  font-size="200">&#120;</text>
                    <text x="424.132" y="-182.5"  font-size="200">&#120;</text>
                    <polygon points="424.132 349.226  424.132 326.726  686.876 353  686.876 375.5  "></polygon>
                    <polygon points="424.132 346.726  424.132 326.726  686.876 352.5  686.876 372.5  "></polygon>
                    <text x="424.132" y="150"  font-size="200">&#88;</text>
                    <text x="424.132" y="158.333"  font-size="200">&#104;</text>
                    <text x="424.132" y="175"  font-size="200">&#104;</text>
                    <text x="424.132" y="200"  font-size="200">&#104;</text>
                    <text x="424.132" y="225"  font-size="200">&#104;</text>
                    <text x="424.132" y="250"  font-size="200">&#104;</text>
                    <text x="424.132" y="275"  font-size="200">&#104;</text>
                    <text x="424.132" y="296.726"  font-size="200">&#104;</text>
                    <text x="635.648" y="75"  font-size="200">&#88;</text>
                    <text x="635.648" y="66.6667"  font-size="200">&#120;</text>
                    <text x="635.648" y="50"  font-size="200">&#120;</text>
                    <text x="635.648" y="25"  font-size="200">&#120;</text>
                    <text x="635.648" y="0"  font-size="200">&#120;</text>
                    <text x="635.648" y="-25"  font-size="200">&#120;</text>
                    <text x="635.648" y="-50"  font-size="200">&#120;</text>
                    <text x="635.648" y="-75"  font-size="200">&#120;</text>
                    <text x="635.648" y="-100"  font-size="200">&#120;</text>
                    <text x="635.648" y="-125"  font-size="200">&#120;</text>
                    <text x="635.648" y="-150"  font-size="200">&#120;</text>
                    <text x="635.648" y="-161.348"  font-size="200">&#120;</text>
                    <text x="710.531" y="75"  font-size="200">&#46;</text>
                    <text x="681.876" y="200"  font-size="200">&#88;</text>
                    <text x="681.876" y="208.333"  font-size="200">&#104;</text>
                    <text x="681.876" y="225"  font-size="200">&#104;</text>
                    <text x="681.876" y="250"  font-size="200">&#104;</text>
                    <text x="681.876" y="275"  font-size="200">&#104;</text>
                    <text x="681.876" y="300"  font-size="200">&#104;</text>
                    <text x="681.876" y="322.5"  font-size="200">&#104;</text>
                    <text x="774.332" y="75"  font-size="200">&#88;</text>
                    <text x="774.332" y="66.6667"  font-size="200">&#120;</text>
                    <text x="774.332" y="50"  font-size="200">&#120;</text>
                    <text x="774.332" y="25"  font-size="200">&#120;</text>
                    <text x="774.332" y="0"  font-size="200">&#120;</text>
                    <text x="774.332" y="-25"  font-size="200">&#120;</text>
                    <text x="774.332" y="-50"  font-size="200">&#120;</text>
                    <text x="774.332" y="-50"  font-size="200">&#120;</text>
                    <text x="774.215" y="-100"  font-size="200">&#106;</text>
                    <text x="518.698" y="25"  font-size="200">&#88;</text>
                    <text x="518.698" y="16.6667"  font-size="200">&#120;</text>
                    <text x="518.698" y="0"  font-size="200">&#120;</text>
                    <text x="518.698" y="-25"  font-size="200">&#120;</text>
                    <text x="518.698" y="-50"  font-size="200">&#120;</text>
                    <text x="518.698" y="-75"  font-size="200">&#120;</text>
                    <text x="518.698" y="-100"  font-size="200">&#120;</text>
                    <text x="518.698" y="-125"  font-size="200">&#120;</text>
                    <text x="518.698" y="-150"  font-size="200">&#120;</text>
                    <text x="518.698" y="-173.043"  font-size="200">&#120;</text>
                    <polygon points="854.238 408.216  854.238 385.716  1210.09 360.716  1210.09 383.216  "></polygon>
                    <polygon points="854.238 405.716  854.238 385.716  1210.09 361.068  1210.09 381.068  "></polygon>
                    <polygon points="854.238 368.216  854.238 348.216  1210.09 323.568  1210.09 343.568  "></polygon>
                    <text x="854.238" y="150"  font-size="200">&#88;</text>
                    <text x="854.238" y="158.333"  font-size="200">&#104;</text>
                    <text x="854.238" y="175"  font-size="200">&#104;</text>
                    <text x="854.238" y="200"  font-size="200">&#104;</text>
                    <text x="854.238" y="225"  font-size="200">&#104;</text>
                    <text x="854.238" y="250"  font-size="200">&#104;</text>
                    <text x="854.238" y="275"  font-size="200">&#104;</text>
                    <text x="854.238" y="300"  font-size="200">&#104;</text>
                    <text x="854.238" y="325"  font-size="200">&#104;</text>
                    <text x="854.238" y="350"  font-size="200">&#104;</text>
                    <text x="854.238" y="355.716"  font-size="200">&#104;</text>
                    <polygon points="1026.95 -151.61  1026.95 -129.11  1263.85 -152.8  1263.85 -175.3  "></polygon>
                    <polygon points="1026.95 -149.11  1026.95 -129.11  1263.85 -152.5  1263.85 -172.5  "></polygon>
                    <polygon points="1026.95 -111.61  1026.95 -91.61  1263.85 -115  1263.85 -135  "></polygon>
                    <text x="971.188" y="125"  font-size="200">&#88;</text>
                    <text x="971.188" y="116.667"  font-size="200">&#120;</text>
                    <text x="971.188" y="100"  font-size="200">&#120;</text>
                    <text x="971.188" y="75"  font-size="200">&#120;</text>
                    <text x="971.188" y="50"  font-size="200">&#120;</text>
                    <text x="971.188" y="25"  font-size="200">&#120;</text>
                    <text x="971.188" y="0"  font-size="200">&#120;</text>
                    <text x="971.188" y="-25"  font-size="200">&#120;</text>
                    <text x="971.188" y="-50"  font-size="200">&#120;</text>
                    <text x="971.188" y="-75"  font-size="200">&#120;</text>
                    <text x="971.188" y="-99.11"  font-size="200">&#120;</text>
                    <text x="971.188" y="225"  font-size="200">&#88;</text>
                    <text x="971.188" y="233.333"  font-size="200">&#104;</text>
                    <text x="971.188" y="250"  font-size="200">&#104;</text>
                    <text x="971.188" y="275"  font-size="200">&#104;</text>
                    <text x="971.188" y="300"  font-size="200">&#104;</text>
                    <text x="971.188" y="325"  font-size="200">&#104;</text>
                    <text x="971.188" y="347.5"  font-size="200">&#104;</text>
                    <text x="1088.14" y="75"  font-size="200">&#88;</text>
                    <text x="1088.14" y="66.6667"  font-size="200">&#120;</text>
                    <text x="1088.14" y="50"  font-size="200">&#120;</text>
                    <text x="1088.14" y="25"  font-size="200">&#120;</text>
                    <text x="1088.14" y="0"  font-size="200">&#120;</text>
                    <text x="1088.14" y="-25"  font-size="200">&#120;</text>
                    <text x="1088.14" y="-50"  font-size="200">&#120;</text>
                    <text x="1088.14" y="-75"  font-size="200">&#120;</text>
                    <text x="1088.14" y="-100"  font-size="200">&#120;</text>
                    <text x="1088.14" y="-110.805"  font-size="200">&#120;</text>
                    <text x="1088.14" y="175"  font-size="200">&#88;</text>
                    <text x="1088.14" y="183.333"  font-size="200">&#104;</text>
                    <text x="1088.14" y="200"  font-size="200">&#104;</text>
                    <text x="1088.14" y="225"  font-size="200">&#104;</text>
                    <text x="1088.14" y="250"  font-size="200">&#104;</text>
                    <text x="1088.14" y="275"  font-size="200">&#104;</text>
                    <text x="1088.14" y="300"  font-size="200">&#104;</text>
                    <text x="1088.14" y="325"  font-size="200">&#104;</text>
                    <text x="1088.14" y="339.284"  font-size="200">&#104;</text>
                    <text x="1205.09" y="0"  font-size="200">&#88;</text>
                    <text x="1205.09" y="-8.33333"  font-size="200">&#120;</text>
                    <text x="1205.09" y="-25"  font-size="200">&#120;</text>
                    <text x="1205.09" y="-50"  font-size="200">&#120;</text>
                    <text x="1205.09" y="-75"  font-size="200">&#120;</text>
                    <text x="1205.09" y="-100"  font-size="200">&#120;</text>
                    <text x="1205.09" y="-122.5"  font-size="200">&#120;</text>
                    <text x="1205.09" y="125"  font-size="200">&#88;</text>
                    <text x="1205.09" y="133.333"  font-size="200">&#104;</text>
                    <text x="1205.09" y="150"  font-size="200">&#104;</text>
                    <text x="1205.09" y="175"  font-size="200">&#104;</text>
                    <text x="1205.09" y="200"  font-size="200">&#104;</text>
                    <text x="1205.09" y="225"  font-size="200">&#104;</text>
                    <text x="1205.09" y="250"  font-size="200">&#104;</text>
                    <text x="1205.09" y="275"  font-size="200">&#104;</text>
                    <text x="1205.09" y="300"  font-size="200">&#104;</text>
                    <text x="1205.09" y="325"  font-size="200">&#104;</text>
                    <text x="1205.09" y="331.068"  font-size="200">&#104;</text>
                    <g style="stroke-width:4">
                        <line x1="1354.92" y1="2" x2="1354.92" y2="198"></line>
                    </g>
                </g>
            </g>
            <g transform="translate(474.213, 709.213)">
                <g style="stroke-width:4">
                    <line x1="0" y1="700" x2="1353.68" y2="700"></line>
                    <line x1="0" y1="750" x2="1353.68" y2="750"></line>
                    <line x1="0" y1="800" x2="1353.68" y2="800"></line>
                    <line x1="0" y1="850" x2="1353.68" y2="850"></line>
                    <line x1="0" y1="900" x2="1353.68" y2="900"></line>
                    <line x1="1353.68" y1="700" x2="1459.06" y2="700"></line>
                    <line x1="1353.68" y1="750" x2="1459.06" y2="750"></line>
                    <line x1="1353.68" y1="800" x2="1459.06" y2="800"></line>
                    <line x1="1353.68" y1="850" x2="1459.06" y2="850"></line>
                    <line x1="1353.68" y1="900" x2="1459.06" y2="900"></line>
                </g>
            </g>
            <g transform="translate(474.213, 1409.21)">
                <g font-family="Guido2">
                    <text x="49.9996" y="200"  font-size="200">&#63;</text>
                    <text x="256.132" y="50"  font-size="200">&#50;</text>
                    <text x="257.132" y="150"  font-size="200">&#52;</text>
                    <text x="424.132" y="0"  font-size="200">&#88;</text>
                    <text x="424.132" y="-8.33333"  font-size="200">&#120;</text>
                    <text x="424.132" y="-25"  font-size="200">&#120;</text>
                    <text x="424.132" y="-50"  font-size="200">&#120;</text>
                    <text x="424.132" y="-75"  font-size="200">&#120;</text>
                    <text x="424.132" y="-100"  font-size="200">&#120;</text>
                    <text x="424.132" y="-125"  font-size="200">&#120;</text>
                    <text x="424.132" y="-125"  font-size="200">&#120;</text>
                    <text x="424.132" y="50"  font-size="200">&#88;</text>
                    <text x="424.132" y="58.3333"  font-size="200">&#104;</text>
                    <text x="424.132" y="75"  font-size="200">&#104;</text>
                    <text x="424.132" y="100"  font-size="200">&#104;</text>
                    <text x="424.132" y="125"  font-size="200">&#104;</text>
                    <text x="424.132" y="150"  font-size="200">&#104;</text>
                    <text x="424.132" y="175"  font-size="200">&#104;</text>
                    <text x="424.132" y="175"  font-size="200">&#104;</text>
                    <text x="854.238" y="50"  font-size="200">&#88;</text>
                    <text x="854.238" y="41.6667"  font-size="200">&#120;</text>
                    <text x="854.238" y="25"  font-size="200">&#120;</text>
                    <text x="854.238" y="0"  font-size="200">&#120;</text>
                    <text x="854.238" y="-25"  font-size="200">&#120;</text>
                    <text x="854.238" y="-50"  font-size="200">&#120;</text>
                    <text x="854.238" y="-75"  font-size="200">&#120;</text>
                    <text x="854.238" y="-75"  font-size="200">&#120;</text>
                    <text x="854.238" y="100"  font-size="200">&#88;</text>
                    <text x="854.238" y="108.333"  font-size="200">&#104;</text>
                    <text x="854.238" y="125"  font-size="200">&#104;</text>
                    <text x="854.238" y="150"  font-size="200">&#104;</text>
                    <text x="854.238" y="175"  font-size="200">&#104;</text>
                    <text x="854.238" y="200"  font-size="200">&#104;</text>
                    <text x="854.238" y="225"  font-size="200">&#104;</text>
                    <text x="854.238" y="225"  font-size="200">&#104;</text>
                    <g style="stroke-width:4">
                        <line x1="1354.92" y1="2" x2="1354.92" y2="198"></line>
                    </g>
                </g>
            </g>
            <g transform="translate(474.213, 709.213)">
                <polygon points="-16.5 0  -16.5 0  -24.5096 8.86234  -30.6568 20.2923  -35.1192 34.0543  -38.0744 49.9127  -39.7 67.632  -40.1736 86.9766  -39.6728 107.711  -38.3752 129.599  -36.4584 152.406  -34.1 175.896  -31.4776 199.833  -28.7688 223.982  -26.1512 248.107  -23.8024 271.973  -21.9 295.344  -20.6216 317.984  -20.1448 339.658  -20.6472 360.131  -22.3064 379.166  -25.3 396.528  -29.8056 411.982  -36.0008 425.291  -44.0632 436.221  -54.1704 444.536  -66.5 450  -66.5 450  -66.5 450  -56.7624 444.536  -49.0312 436.221  -43.1288 425.291  -38.8776 411.982  -36.1 396.528  -34.6184 379.166  -34.2552 360.131  -34.8328 339.658  -36.1736 317.984  -38.1 295.344  -40.4344 271.973  -42.9992 248.107  -45.6168 223.982  -48.1096 199.833  -50.3 175.896  -52.0104 152.406  -53.0632 129.599  -53.2808 107.711  -52.4856 86.9766  -50.5 67.632  -47.1464 49.9127  -42.2472 34.0542  -35.6248 20.2922  -27.1016 8.8623  -16.5 0  "></polygon>
                <polygon points="-16.5 900  -16.5 900  -24.5096 891.138  -30.6568 879.708  -35.1192 865.946  -38.0744 850.087  -39.7 832.368  -40.1736 813.023  -39.6728 792.289  -38.3752 770.401  -36.4584 747.594  -34.1 724.104  -31.4776 700.167  -28.7688 676.018  -26.1512 651.893  -23.8024 628.027  -21.9 604.656  -20.6216 582.016  -20.1448 560.342  -20.6472 539.869  -22.3064 520.834  -25.3 503.472  -29.8056 488.018  -36.0008 474.709  -44.0632 463.779  -54.1704 455.464  -66.5 450  -66.5 450  -66.5 450  -56.7624 455.464  -49.0312 463.779  -43.1288 474.709  -38.8776 488.018  -36.1 503.472  -34.6184 520.834  -34.2552 539.869  -34.8328 560.342  -36.1736 582.016  -38.1 604.656  -40.4344 628.027  -42.9992 651.893  -45.6168 676.018  -48.1096 700.167  -50.3 724.104  -52.0104 747.594  -53.0632 770.401  -53.2808 792.289  -52.4856 813.023  -50.5 832.368  -47.1464 850.087  -42.2472 865.946  -35.6248 879.708  -27.1016 891.138  -16.5 900  "></polygon>
                <g style="stroke-width:4">
                    <line x1="1459.06" y1="0" x2="2356.97" y2="0"></line>
                    <line x1="1459.06" y1="50" x2="2356.97" y2="50"></line>
                    <line x1="1459.06" y1="100" x2="2356.97" y2="100"></line>
                    <line x1="1459.06" y1="150" x2="2356.97" y2="150"></line>
                    <line x1="1459.06" y1="200" x2="2356.97" y2="200"></line>
                </g>
            </g>
            <g transform="translate(474.213, 709.213)">
                <polygon points="1484.95 -235  1484.95 -212.5  1699.46 -191.048  1699.46 -213.548  "></polygon>
                <polygon points="1484.95 -232.5  1484.95 -212.5  1699.46 -191.348  1699.46 -211.348  "></polygon>
                <polygon points="1484.95 -195  1484.95 -175  1699.46 -153.848  1699.46 -173.848  "></polygon>
                <polygon points="1484.95 -157.5  1484.95 -137.5  1534.95 -132.5  1534.95 -152.5  "></polygon>
                <g font-family="Guido2">
                    <text x="1429.18" y="-25"  font-size="200">&#88;</text>
                    <text x="1429.18" y="-33.3333"  font-size="200">&#120;</text>
                    <text x="1429.18" y="-50"  font-size="200">&#120;</text>
                    <text x="1429.18" y="-75"  font-size="200">&#120;</text>
                    <text x="1429.18" y="-100"  font-size="200">&#120;</text>
                    <text x="1429.18" y="-125"  font-size="200">&#120;</text>
                    <text x="1429.18" y="-150"  font-size="200">&#120;</text>
                    <text x="1429.18" y="-175"  font-size="200">&#120;</text>
                    <text x="1429.18" y="-182.5"  font-size="200">&#120;</text>
                    <polygon points="1429.18 349.226  1429.18 326.726  1691.93 353  1691.93 375.5  "></polygon>
                    <polygon points="1429.18 346.726  1429.18 326.726  1691.93 352.5  1691.93 372.5  "></polygon>
                    <text x="1429.18" y="125"  font-size="200">&#88;</text>
                    <text x="1429.18" y="133.333"  font-size="200">&#104;</text>
                    <text x="1429.18" y="150"  font-size="200">&#104;</text>
                    <text x="1429.18" y="175"  font-size="200">&#104;</text>
                    <text x="1429.18" y="200"  font-size="200">&#104;</text>
                    <text x="1429.18" y="225"  font-size="200">&#104;</text>
                    <text x="1429.18" y="250"  font-size="200">&#104;</text>
                    <text x="1429.18" y="275"  font-size="200">&#104;</text>
                    <text x="1429.18" y="296.726"  font-size="200">&#104;</text>
                    <text x="1640.7" y="100"  font-size="200">&#88;</text>
                    <text x="1640.7" y="91.6667"  font-size="200">&#120;</text>
                    <text x="1640.7" y="75"  font-size="200">&#120;</text>
                    <text x="1640.7" y="50"  font-size="200">&#120;</text>
                    <text x="1640.7" y="25"  font-size="200">&#120;</text>
                    <text x="1640.7" y="0"  font-size="200">&#120;</text>
                    <text x="1640.7" y="-25"  font-size="200">&#120;</text>
                    <text x="1640.7" y="-50"  font-size="200">&#120;</text>
                    <text x="1640.7" y="-75"  font-size="200">&#120;</text>
                    <text x="1640.7" y="-100"  font-size="200">&#120;</text>
                    <text x="1640.7" y="-125"  font-size="200">&#120;</text>
                    <text x="1640.7" y="-150"  font-size="200">&#120;</text>
                    <text x="1640.7" y="-161.348"  font-size="200">&#120;</text>
                    <text x="1715.58" y="75"  font-size="200">&#46;</text>
                    <text x="1686.93" y="200"  font-size="200">&#88;</text>
                    <text x="1686.93" y="208.333"  font-size="200">&#104;</text>
                    <text x="1686.93" y="225"  font-size="200">&#104;</text>
                    <text x="1686.93" y="250"  font-size="200">&#104;</text>
                    <text x="1686.93" y="275"  font-size="200">&#104;</text>
                    <text x="1686.93" y="300"  font-size="200">&#104;</text>
                    <text x="1686.93" y="322.5"  font-size="200">&#104;</text>
                    <text x="1779.38" y="50"  font-size="200">&#88;</text>
                    <text x="1779.38" y="41.6667"  font-size="200">&#120;</text>
                    <text x="1779.38" y="25"  font-size="200">&#120;</text>
                    <text x="1779.38" y="0"  font-size="200">&#120;</text>
                    <text x="1779.38" y="-25"  font-size="200">&#120;</text>
                    <text x="1779.38" y="-50"  font-size="200">&#120;</text>
                    <text x="1779.38" y="-75"  font-size="200">&#120;</text>
                    <text x="1779.38" y="-75"  font-size="200">&#120;</text>
                    <text x="1779.26" y="-125"  font-size="200">&#106;</text>
                    <text x="1523.75" y="50"  font-size="200">&#88;</text>
                    <text x="1523.75" y="41.6667"  font-size="200">&#120;</text>
                    <text x="1523.75" y="25"  font-size="200">&#120;</text>
                    <text x="1523.75" y="0"  font-size="200">&#120;</text>
                    <text x="1523.75" y="-25"  font-size="200">&#120;</text>
                    <text x="1523.75" y="-50"  font-size="200">&#120;</text>
                    <text x="1523.75" y="-75"  font-size="200">&#120;</text>
                    <text x="1523.75" y="-100"  font-size="200">&#120;</text>
                    <text x="1523.75" y="-125"  font-size="200">&#120;</text>
                    <text x="1523.75" y="-150"  font-size="200">&#120;</text>
                    <text x="1523.75" y="-173.043"  font-size="200">&#120;</text>
                    <polygon points="1859.29 383.216  1859.29 360.716  2215.14 335.716  2215.14 358.216  "></polygon>
                    <polygon points="1859.29 380.716  1859.29 360.716  2215.14 336.068  2215.14 356.068  "></polygon>
                    <polygon points="1859.29 343.216  1859.29 323.216  2215.14 298.568  2215.14 318.568  "></polygon>
                    <text x="1859.29" y="125"  font-size="200">&#88;</text>
                    <text x="1859.29" y="133.333"  font-size="200">&#104;</text>
                    <text x="1859.29" y="150"  font-size="200">&#104;</text>
                    <text x="1859.29" y="175"  font-size="200">&#104;</text>
                    <text x="1859.29" y="200"  font-size="200">&#104;</text>
                    <text x="1859.29" y="225"  font-size="200">&#104;</text>
                    <text x="1859.29" y="250"  font-size="200">&#104;</text>
                    <text x="1859.29" y="275"  font-size="200">&#104;</text>
                    <text x="1859.29" y="300"  font-size="200">&#104;</text>
                    <text x="1859.29" y="325"  font-size="200">&#104;</text>
                    <text x="1859.29" y="330.716"  font-size="200">&#104;</text>
                    <polygon points="2032 -176.61  2032 -154.11  2268.9 -177.8  2268.9 -200.3  "></polygon>
                    <polygon points="2032 -174.11  2032 -154.11  2268.9 -177.5  2268.9 -197.5  "></polygon>
                    <polygon points="2032 -136.61  2032 -116.61  2268.9 -140  2268.9 -160  "></polygon>
                    <text x="1976.24" y="100"  font-size="200">&#88;</text>
                    <text x="1976.24" y="91.6667"  font-size="200">&#120;</text>
                    <text x="1976.24" y="75"  font-size="200">&#120;</text>
                    <text x="1976.24" y="50"  font-size="200">&#120;</text>
                    <text x="1976.24" y="25"  font-size="200">&#120;</text>
                    <text x="1976.24" y="0"  font-size="200">&#120;</text>
                    <text x="1976.24" y="-25"  font-size="200">&#120;</text>
                    <text x="1976.24" y="-50"  font-size="200">&#120;</text>
                    <text x="1976.24" y="-75"  font-size="200">&#120;</text>
                    <text x="1976.24" y="-100"  font-size="200">&#120;</text>
                    <text x="1976.24" y="-124.11"  font-size="200">&#120;</text>
                    <text x="1976.24" y="200"  font-size="200">&#88;</text>
                    <text x="1976.24" y="208.333"  font-size="200">&#104;</text>
                    <text x="1976.24" y="225"  font-size="200">&#104;</text>
                    <text x="1976.24" y="250"  font-size="200">&#104;</text>
                    <text x="1976.24" y="275"  font-size="200">&#104;</text>
                    <text x="1976.24" y="300"  font-size="200">&#104;</text>
                    <text x="1976.24" y="322.5"  font-size="200">&#104;</text>
                    <text x="2093.19" y="50"  font-size="200">&#88;</text>
                    <text x="2093.19" y="41.6667"  font-size="200">&#120;</text>
                    <text x="2093.19" y="25"  font-size="200">&#120;</text>
                    <text x="2093.19" y="0"  font-size="200">&#120;</text>
                    <text x="2093.19" y="-25"  font-size="200">&#120;</text>
                    <text x="2093.19" y="-50"  font-size="200">&#120;</text>
                    <text x="2093.19" y="-75"  font-size="200">&#120;</text>
                    <text x="2093.19" y="-100"  font-size="200">&#120;</text>
                    <text x="2093.19" y="-125"  font-size="200">&#120;</text>
                    <text x="2093.19" y="-135.805"  font-size="200">&#120;</text>
                    <text x="2093.19" y="150"  font-size="200">&#88;</text>
                    <text x="2093.19" y="158.333"  font-size="200">&#104;</text>
                    <text x="2093.19" y="175"  font-size="200">&#104;</text>
                    <text x="2093.19" y="200"  font-size="200">&#104;</text>
                    <text x="2093.19" y="225"  font-size="200">&#104;</text>
                    <text x="2093.19" y="250"  font-size="200">&#104;</text>
                    <text x="2093.19" y="275"  font-size="200">&#104;</text>
                    <text x="2093.19" y="300"  font-size="200">&#104;</text>
                    <text x="2093.19" y="314.284"  font-size="200">&#104;</text>
                    <text x="2210.14" y="-25"  font-size="200">&#88;</text>
                    <text x="2210.14" y="-33.3333"  font-size="200">&#120;</text>
                    <text x="2210.14" y="-50"  font-size="200">&#120;</text>
                    <text x="2210.14" y="-75"  font-size="200">&#120;</text>
                    <text x="2210.14" y="-100"  font-size="200">&#120;</text>
                    <text x="2210.14" y="-125"  font-size="200">&#120;</text>
                    <text x="2210.14" y="-147.5"  font-size="200">&#120;</text>
                    <text x="2210.14" y="100"  font-size="200">&#88;</text>
                    <text x="2210.14" y="108.333"  font-size="200">&#104;</text>
                    <text x="2210.14" y="125"  font-size="200">&#104;</text>
                    <text x="2210.14" y="150"  font-size="200">&#104;</text>
                    <text x="2210.14" y="175"  font-size="200">&#104;</text>
                    <text x="2210.14" y="200"  font-size="200">&#104;</text>
                    <text x="2210.14" y="225"  font-size="200">&#104;</text>
                    <text x="2210.14" y="250"  font-size="200">&#104;</text>
                    <text x="2210.14" y="275"  font-size="200">&#104;</text>
                    <text x="2210.14" y="300"  font-size="200">&#104;</text>
                    <text x="2210.14" y="306.068"  font-size="200">&#104;</text>
                    <rect x="2314.77" y="0" width="7.19995" height="200"></rect>
                    <rect x="2334.77" y="0" width="25" height="200"></rect>
                    <rect x="2314.77" y="0" width="7.19995" height="200"></rect>
                    <rect x="2334.77" y="0" width="25" height="200"></rect>
                </g>
            </g>
            <g transform="translate(474.213, 709.213)">
                <g style="stroke-width:4">
                    <line x1="1459.06" y1="700" x2="2356.97" y2="700"></line>
                    <line x1="1459.06" y1="750" x2="2356.97" y2="750"></line>
                    <line x1="1459.06" y1="800" x2="2356.97" y2="800"></line>
                    <line x1="1459.06" y1="850" x2="2356.97" y2="850"></line>
                    <line x1="1459.06" y1="900" x2="2356.97" y2="900"></line>
                </g>
            </g>
            <g transform="translate(474.213, 1409.21)">
                <g font-family="Guido2">
                    <text x="1429.18" y="-25"  font-size="200">&#88;</text>
                    <text x="1429.18" y="-33.3333"  font-size="200">&#120;</text>
                    <text x="1429.18" y="-50"  font-size="200">&#120;</text>
                    <text x="1429.18" y="-75"  font-size="200">&#120;</text>
                    <text x="1429.18" y="-100"  font-size="200">&#120;</text>
                    <text x="1429.18" y="-125"  font-size="200">&#120;</text>
                    <text x="1429.18" y="-150"  font-size="200">&#120;</text>
                    <text x="1429.18" y="-150"  font-size="200">&#120;</text>
                    <text x="1429.18" y="25"  font-size="200">&#88;</text>
                    <text x="1429.18" y="33.3333"  font-size="200">&#104;</text>
                    <text x="1429.18" y="50"  font-size="200">&#104;</text>
                    <text x="1429.18" y="75"  font-size="200">&#104;</text>
                    <text x="1429.18" y="100"  font-size="200">&#104;</text>
                    <text x="1429.18" y="125"  font-size="200">&#104;</text>
                    <text x="1429.18" y="150"  font-size="200">&#104;</text>
                    <text x="1429.18" y="150"  font-size="200">&#104;</text>
                    <text x="1838.17" y="-50"  font-size="200">&#95;</text>
                    <text x="1859.29" y="-50"  font-size="200">&#88;</text>
                    <text x="1859.29" y="-58.3333"  font-size="200">&#120;</text>
                    <text x="1859.29" y="-75"  font-size="200">&#120;</text>
                    <text x="1859.29" y="-100"  font-size="200">&#120;</text>
                    <text x="1859.29" y="-125"  font-size="200">&#120;</text>
                    <text x="1859.29" y="-150"  font-size="200">&#120;</text>
                    <text x="1859.29" y="-175"  font-size="200">&#120;</text>
                    <text x="1859.29" y="-175"  font-size="200">&#120;</text>
                    <text x="1859.29" y="0"  font-size="200">&#88;</text>
                    <text x="1859.29" y="8.33333"  font-size="200">&#104;</text>
                    <text x="1859.29" y="25"  font-size="200">&#104;</text>
                    <text x="1859.29" y="50"  font-size="200">&#104;</text>
                    <text x="1859.29" y="75"  font-size="200">&#104;</text>
                    <text x="1859.29" y="100"  font-size="200">&#104;</text>
                    <text x="1859.29" y="125"  font-size="200">&#104;</text>
                    <text x="1859.29" y="125"  font-size="200">&#104;</text>
                    <rect x="2314.77" y="0" width="7.19995" height="200"></rect>
                    <rect x="2334.77" y="0" width="25" height="200"></rect>
                    <rect x="2314.77" y="0" width="7.19995" height="200"></rect>
                    <rect x="2334.77" y="0" width="25" height="200"></rect>
                </g>
            </g>
            <g transform="translate(474.213, 709.213)">
                <g style="stroke-width:4">
                    <line x1="0" y1="0" x2="0" y2="900"></line>
                </g>
            </g>
            <g transform="translate(474.213, 474.213)">
            </g>
            <g transform="translate(0, 3.05176e-05)">
            </g>
        </g>
    </g>
</svg>
