<?xml version="1.0"?>
<svg xmlns="http://www.w3.org/2000/svg" xmlns:xlink="http://www.w3.org/1999/xlink" viewBox="0 0 393.000000 180.000000" width="196.500000mm" height="90.000000mm" version="1.1">
<rect x="1.000000" y="1.000000" width="392.000000" height="179.000000" rx="0" ry="0" style="stroke:none;fill:#cccccc;"/>
<rect x="0.000000" y="0.000000" width="392.000000" height="179.000000" rx="0" ry="0" style="stroke:none;fill:#ffffff;"/>
<text x="10.000000" y="7.000000" font-family="Arial" font-size="7"></text>
<rect x="55.000000" y="79.000000" width="24.000000" height="24.000000" rx="0" ry="0" style="stroke:none;fill:#cccccc;"/>
<rect x="54.000000" y="78.000000" width="24.000000" height="24.000000" rx="0" ry="0" style="stroke:none;fill:#4B71A1;"/>
<text x="66.000000" y="92.000000" font-family="Arial" font-size="7" text-anchor="middle" fill="#FFFFFF">+</text>
<circle cx="56.000000" cy="80.000000" r="1"/>
<line x1="51.000000" y1="85.000000" x2="54.000000" y2="86.000000"  transform="rotate(0.000000,54.000000,86.000000)" style="stroke: black; stroke-width:0.25;"/>
<line x1="51.000000" y1="87.000000" x2="54.000000" y2="86.000000"  transform="rotate(0.000000,54.000000,86.000000)" style="stroke: black; stroke-width:0.25;"/>
<line x1="51.000000" y1="93.000000" x2="54.000000" y2="94.000000"  transform="rotate(0.000000,54.000000,94.000000)" style="stroke: black; stroke-width:0.25;"/>
<line x1="51.000000" y1="95.000000" x2="54.000000" y2="94.000000"  transform="rotate(0.000000,54.000000,94.000000)" style="stroke: black; stroke-width:0.25;"/>
<rect x="133.000000" y="87.000000" width="24.000000" height="24.000000" rx="0" ry="0" style="stroke:none;fill:#cccccc;"/>
<rect x="132.000000" y="86.000000" width="24.000000" height="24.000000" rx="0" ry="0" style="stroke:none;fill:#4B71A1;"/>
<text x="144.000000" y="100.000000" font-family="Arial" font-size="7" text-anchor="middle" fill="#FFFFFF">+</text>
<circle cx="134.000000" cy="88.000000" r="1"/>
<line x1="129.000000" y1="93.000000" x2="132.000000" y2="94.000000"  transform="rotate(0.000000,132.000000,94.000000)" style="stroke: black; stroke-width:0.25;"/>
<line x1="129.000000" y1="95.000000" x2="132.000000" y2="94.000000"  transform="rotate(0.000000,132.000000,94.000000)" style="stroke: black; stroke-width:0.25;"/>
<line x1="129.000000" y1="101.000000" x2="132.000000" y2="102.000000"  transform="rotate(0.000000,132.000000,102.000000)" style="stroke: black; stroke-width:0.25;"/>
<line x1="129.000000" y1="103.000000" x2="132.000000" y2="102.000000"  transform="rotate(0.000000,132.000000,102.000000)" style="stroke: black; stroke-width:0.25;"/>
<rect x="191.000000" y="43.000000" width="129.000000" height="24.000000" rx="0" ry="0" style="stroke:none;fill:#cccccc;"/>
<rect x="190.000000" y="42.000000" width="129.000000" height="24.000000" rx="0" ry="0" style="stroke:none;fill:#477881;"/>
<text x="254.500000" y="56.000000" font-family="Arial" font-size="7" text-anchor="middle" fill="#FFFFFF">vslider(volume, 1, 0, 1, 0.01)</text>
<circle cx="192.000000" cy="44.000000" r="1"/>
<rect x="336.000000" y="39.000000" width="24.000000" height="24.000000" rx="0" ry="0" style="stroke:none;fill:#cccccc;"/>
<rect x="335.000000" y="38.000000" width="24.000000" height="24.000000" rx="0" ry="0" style="stroke:none;fill:#4B71A1;"/>
<text x="347.000000" y="52.000000" font-family="Arial" font-size="7" text-anchor="middle" fill="#FFFFFF">*</text>
<circle cx="337.000000" cy="40.000000" r="1"/>
<line x1="332.000000" y1="45.000000" x2="335.000000" y2="46.000000"  transform="rotate(0.000000,335.000000,46.000000)" style="stroke: black; stroke-width:0.25;"/>
<line x1="332.000000" y1="47.000000" x2="335.000000" y2="46.000000"  transform="rotate(0.000000,335.000000,46.000000)" style="stroke: black; stroke-width:0.25;"/>
<line x1="332.000000" y1="53.000000" x2="335.000000" y2="54.000000"  transform="rotate(0.000000,335.000000,54.000000)" style="stroke: black; stroke-width:0.25;"/>
<line x1="332.000000" y1="55.000000" x2="335.000000" y2="54.000000"  transform="rotate(0.000000,335.000000,54.000000)" style="stroke: black; stroke-width:0.25;"/>
<rect x="191.000000" y="83.000000" width="129.000000" height="24.000000" rx="0" ry="0" style="stroke:none;fill:#cccccc;"/>
<rect x="190.000000" y="82.000000" width="129.000000" height="24.000000" rx="0" ry="0" style="stroke:none;fill:#477881;"/>
<text x="254.500000" y="96.000000" font-family="Arial" font-size="7" text-anchor="middle" fill="#FFFFFF">vslider(volume, 1, 0, 1, 0.01)</text>
<circle cx="192.000000" cy="84.000000" r="1"/>
<rect x="336.000000" y="79.000000" width="24.000000" height="24.000000" rx="0" ry="0" style="stroke:none;fill:#cccccc;"/>
<rect x="335.000000" y="78.000000" width="24.000000" height="24.000000" rx="0" ry="0" style="stroke:none;fill:#4B71A1;"/>
<text x="347.000000" y="92.000000" font-family="Arial" font-size="7" text-anchor="middle" fill="#FFFFFF">*</text>
<circle cx="337.000000" cy="80.000000" r="1"/>
<line x1="332.000000" y1="85.000000" x2="335.000000" y2="86.000000"  transform="rotate(0.000000,335.000000,86.000000)" style="stroke: black; stroke-width:0.25;"/>
<line x1="332.000000" y1="87.000000" x2="335.000000" y2="86.000000"  transform="rotate(0.000000,335.000000,86.000000)" style="stroke: black; stroke-width:0.25;"/>
<line x1="332.000000" y1="93.000000" x2="335.000000" y2="94.000000"  transform="rotate(0.000000,335.000000,94.000000)" style="stroke: black; stroke-width:0.25;"/>
<line x1="332.000000" y1="95.000000" x2="335.000000" y2="94.000000"  transform="rotate(0.000000,335.000000,94.000000)" style="stroke: black; stroke-width:0.25;"/>
<rect x="191.000000" y="123.000000" width="129.000000" height="24.000000" rx="0" ry="0" style="stroke:none;fill:#cccccc;"/>
<rect x="190.000000" y="122.000000" width="129.000000" height="24.000000" rx="0" ry="0" style="stroke:none;fill:#477881;"/>
<text x="254.500000" y="136.000000" font-family="Arial" font-size="7" text-anchor="middle" fill="#FFFFFF">vslider(volume, 1, 0, 1, 0.01)</text>
<circle cx="192.000000" cy="124.000000" r="1"/>
<rect x="336.000000" y="119.000000" width="24.000000" height="24.000000" rx="0" ry="0" style="stroke:none;fill:#cccccc;"/>
<rect x="335.000000" y="118.000000" width="24.000000" height="24.000000" rx="0" ry="0" style="stroke:none;fill:#4B71A1;"/>
<text x="347.000000" y="132.000000" font-family="Arial" font-size="7" text-anchor="middle" fill="#FFFFFF">*</text>
<circle cx="337.000000" cy="120.000000" r="1"/>
<line x1="332.000000" y1="125.000000" x2="335.000000" y2="126.000000"  transform="rotate(0.000000,335.000000,126.000000)" style="stroke: black; stroke-width:0.25;"/>
<line x1="332.000000" y1="127.000000" x2="335.000000" y2="126.000000"  transform="rotate(0.000000,335.000000,126.000000)" style="stroke: black; stroke-width:0.25;"/>
<line x1="332.000000" y1="133.000000" x2="335.000000" y2="134.000000"  transform="rotate(0.000000,335.000000,134.000000)" style="stroke: black; stroke-width:0.25;"/>
<line x1="332.000000" y1="135.000000" x2="335.000000" y2="134.000000"  transform="rotate(0.000000,335.000000,134.000000)" style="stroke: black; stroke-width:0.25;"/>
<line x1="181.000000" y1="25.000000" x2="181.000000" y2="155.000000"  style="stroke: black; stroke-linecap:round; stroke-width:0.25; stroke-dasharray:3,3;"/>
<line x1="181.000000" y1="155.000000" x2="368.000000" y2="155.000000"  style="stroke: black; stroke-linecap:round; stroke-width:0.25; stroke-dasharray:3,3;"/>
<line x1="368.000000" y1="155.000000" x2="368.000000" y2="25.000000"  style="stroke: black; stroke-linecap:round; stroke-width:0.25; stroke-dasharray:3,3;"/>
<line x1="181.000000" y1="25.000000" x2="186.000000" y2="25.000000"  style="stroke: black; stroke-linecap:round; stroke-width:0.25; stroke-dasharray:3,3;"/>
<line x1="211.800000" y1="25.000000" x2="368.000000" y2="25.000000"  style="stroke: black; stroke-linecap:round; stroke-width:0.25; stroke-dasharray:3,3;"/>
<text x="186.000000" y="27.000000" font-family="Arial" font-size="7">vol(3)</text>
<line x1="15.000000" y1="15.000000" x2="15.000000" y2="165.000000"  style="stroke: black; stroke-linecap:round; stroke-width:0.25; stroke-dasharray:3,3;"/>
<line x1="15.000000" y1="165.000000" x2="378.000000" y2="165.000000"  style="stroke: black; stroke-linecap:round; stroke-width:0.25; stroke-dasharray:3,3;"/>
<line x1="378.000000" y1="165.000000" x2="378.000000" y2="15.000000"  style="stroke: black; stroke-linecap:round; stroke-width:0.25; stroke-dasharray:3,3;"/>
<line x1="15.000000" y1="15.000000" x2="20.000000" y2="15.000000"  style="stroke: black; stroke-linecap:round; stroke-width:0.25; stroke-dasharray:3,3;"/>
<line x1="49.025000" y1="15.000000" x2="378.000000" y2="15.000000"  style="stroke: black; stroke-linecap:round; stroke-width:0.25; stroke-dasharray:3,3;"/>
<text x="20.000000" y="17.000000" font-family="Arial" font-size="7">process</text>
<line x1="380.000000" y1="49.000000" x2="383.000000" y2="50.000000"  transform="rotate(0.000000,383.000000,50.000000)" style="stroke: black; stroke-width:0.25;"/>
<line x1="380.000000" y1="51.000000" x2="383.000000" y2="50.000000"  transform="rotate(0.000000,383.000000,50.000000)" style="stroke: black; stroke-width:0.25;"/>
<line x1="380.000000" y1="89.000000" x2="383.000000" y2="90.000000"  transform="rotate(0.000000,383.000000,90.000000)" style="stroke: black; stroke-width:0.25;"/>
<line x1="380.000000" y1="91.000000" x2="383.000000" y2="90.000000"  transform="rotate(0.000000,383.000000,90.000000)" style="stroke: black; stroke-width:0.25;"/>
<line x1="380.000000" y1="129.000000" x2="383.000000" y2="130.000000"  transform="rotate(0.000000,383.000000,130.000000)" style="stroke: black; stroke-width:0.25;"/>
<line x1="380.000000" y1="131.000000" x2="383.000000" y2="130.000000"  transform="rotate(0.000000,383.000000,130.000000)" style="stroke: black; stroke-width:0.25;"/>
<line x1="10.000000" y1="82.000000" x2="20.000000" y2="82.000000"  style="stroke:black; stroke-linecap:round; stroke-width:0.25;"/>
<line x1="10.000000" y1="94.000000" x2="20.000000" y2="94.000000"  style="stroke:black; stroke-linecap:round; stroke-width:0.25;"/>
<line x1="10.000000" y1="110.000000" x2="20.000000" y2="110.000000"  style="stroke:black; stroke-linecap:round; stroke-width:0.25;"/>
<line x1="20.000000" y1="82.000000" x2="24.000000" y2="82.000000"  style="stroke:black; stroke-linecap:round; stroke-width:0.25;"/>
<line x1="20.000000" y1="94.000000" x2="31.000000" y2="94.000000"  style="stroke:black; stroke-linecap:round; stroke-width:0.25;"/>
<line x1="20.000000" y1="110.000000" x2="66.000000" y2="110.000000"  style="stroke:black; stroke-linecap:round; stroke-width:0.25;"/>
<line x1="24.000000" y1="82.000000" x2="28.000000" y2="82.000000"  style="stroke:black; stroke-linecap:round; stroke-width:0.25;"/>
<line x1="28.000000" y1="82.000000" x2="34.000000" y2="78.000000"  style="stroke:black; stroke-linecap:round; stroke-width:0.25;"/>
<line x1="28.000000" y1="82.000000" x2="34.000000" y2="86.000000"  style="stroke:black; stroke-linecap:round; stroke-width:0.25;"/>
<line x1="31.000000" y1="94.000000" x2="42.000000" y2="94.000000"  style="stroke:black; stroke-linecap:round; stroke-width:0.25;"/>
<line x1="34.000000" y1="78.000000" x2="38.000000" y2="78.000000"  style="stroke:black; stroke-linecap:round; stroke-width:0.25;"/>
<line x1="34.000000" y1="86.000000" x2="38.000000" y2="86.000000"  style="stroke:black; stroke-linecap:round; stroke-width:0.25;"/>
<line x1="38.000000" y1="78.000000" x2="42.000000" y2="78.000000"  style="stroke:black; stroke-linecap:round; stroke-width:0.25;"/>
<line x1="38.000000" y1="86.000000" x2="42.000000" y2="86.000000"  style="stroke:black; stroke-linecap:round; stroke-width:0.25;"/>
<line x1="42.000000" y1="70.000000" x2="50.000000" y2="70.000000"  style="stroke:black; stroke-linecap:round; stroke-width:0.25;"/>
<line x1="42.000000" y1="78.000000" x2="42.000000" y2="70.000000"  style="stroke:black; stroke-linecap:round; stroke-width:0.25;"/>
<line x1="42.000000" y1="78.000000" x2="42.000000" y2="78.000000"  style="stroke:black; stroke-linecap:round; stroke-width:0.25;"/>
<line x1="42.000000" y1="86.000000" x2="50.000000" y2="86.000000"  style="stroke:black; stroke-linecap:round; stroke-width:0.25;"/>
<line x1="42.000000" y1="94.000000" x2="50.000000" y2="94.000000"  style="stroke:black; stroke-linecap:round; stroke-width:0.25;"/>
<line x1="50.000000" y1="70.000000" x2="66.000000" y2="70.000000"  style="stroke:black; stroke-linecap:round; stroke-width:0.25;"/>
<line x1="50.000000" y1="86.000000" x2="54.000000" y2="86.000000"  style="stroke:black; stroke-linecap:round; stroke-width:0.25;"/>
<line x1="50.000000" y1="94.000000" x2="54.000000" y2="94.000000"  style="stroke:black; stroke-linecap:round; stroke-width:0.25;"/>
<line x1="66.000000" y1="70.000000" x2="82.000000" y2="70.000000"  style="stroke:black; stroke-linecap:round; stroke-width:0.25;"/>
<line x1="66.000000" y1="110.000000" x2="112.000000" y2="110.000000"  style="stroke:black; stroke-linecap:round; stroke-width:0.25;"/>
<line x1="78.000000" y1="90.000000" x2="82.000000" y2="90.000000"  style="stroke:black; stroke-linecap:round; stroke-width:0.25;"/>
<line x1="82.000000" y1="70.000000" x2="90.000000" y2="70.000000"  style="stroke:black; stroke-linecap:round; stroke-width:0.25;"/>
<line x1="82.000000" y1="90.000000" x2="90.000000" y2="90.000000"  style="stroke:black; stroke-linecap:round; stroke-width:0.25;"/>
<line x1="90.000000" y1="70.000000" x2="90.000000" y2="78.000000"  style="stroke:black; stroke-linecap:round; stroke-width:0.25;"/>
<line x1="90.000000" y1="78.000000" x2="90.000000" y2="78.000000"  style="stroke:black; stroke-linecap:round; stroke-width:0.25;"/>
<line x1="90.000000" y1="78.000000" x2="101.000000" y2="78.000000"  style="stroke:black; stroke-linecap:round; stroke-width:0.25;"/>
<line x1="90.000000" y1="90.000000" x2="94.000000" y2="90.000000"  style="stroke:black; stroke-linecap:round; stroke-width:0.25;"/>
<line x1="94.000000" y1="90.000000" x2="98.000000" y2="90.000000"  style="stroke:black; stroke-linecap:round; stroke-width:0.25;"/>
<line x1="98.000000" y1="90.000000" x2="104.000000" y2="86.000000"  style="stroke:black; stroke-linecap:round; stroke-width:0.25;"/>
<line x1="98.000000" y1="90.000000" x2="104.000000" y2="94.000000"  style="stroke:black; stroke-linecap:round; stroke-width:0.25;"/>
<line x1="101.000000" y1="78.000000" x2="112.000000" y2="78.000000"  style="stroke:black; stroke-linecap:round; stroke-width:0.25;"/>
<line x1="104.000000" y1="86.000000" x2="108.000000" y2="86.000000"  style="stroke:black; stroke-linecap:round; stroke-width:0.25;"/>
<line x1="104.000000" y1="94.000000" x2="108.000000" y2="94.000000"  style="stroke:black; stroke-linecap:round; stroke-width:0.25;"/>
<line x1="108.000000" y1="86.000000" x2="112.000000" y2="86.000000"  style="stroke:black; stroke-linecap:round; stroke-width:0.25;"/>
<line x1="108.000000" y1="94.000000" x2="112.000000" y2="94.000000"  style="stroke:black; stroke-linecap:round; stroke-width:0.25;"/>
<line x1="112.000000" y1="70.000000" x2="128.000000" y2="70.000000"  style="stroke:black; stroke-linecap:round; stroke-width:0.25;"/>
<line x1="112.000000" y1="78.000000" x2="112.000000" y2="70.000000"  style="stroke:black; stroke-linecap:round; stroke-width:0.25;"/>
<line x1="112.000000" y1="78.000000" x2="112.000000" y2="78.000000"  style="stroke:black; stroke-linecap:round; stroke-width:0.25;"/>
<line x1="112.000000" y1="86.000000" x2="120.000000" y2="86.000000"  style="stroke:black; stroke-linecap:round; stroke-width:0.25;"/>
<line x1="112.000000" y1="94.000000" x2="128.000000" y2="94.000000"  style="stroke:black; stroke-linecap:round; stroke-width:0.25;"/>
<line x1="112.000000" y1="102.000000" x2="128.000000" y2="102.000000"  style="stroke:black; stroke-linecap:round; stroke-width:0.25;"/>
<line x1="112.000000" y1="110.000000" x2="112.000000" y2="102.000000"  style="stroke:black; stroke-linecap:round; stroke-width:0.25;"/>
<line x1="112.000000" y1="110.000000" x2="112.000000" y2="110.000000"  style="stroke:black; stroke-linecap:round; stroke-width:0.25;"/>
<line x1="120.000000" y1="78.000000" x2="128.000000" y2="78.000000"  style="stroke:black; stroke-linecap:round; stroke-width:0.25;"/>
<line x1="120.000000" y1="86.000000" x2="120.000000" y2="78.000000"  style="stroke:black; stroke-linecap:round; stroke-width:0.25;"/>
<line x1="128.000000" y1="70.000000" x2="144.000000" y2="70.000000"  style="stroke:black; stroke-linecap:round; stroke-width:0.25;"/>
<line x1="128.000000" y1="78.000000" x2="144.000000" y2="78.000000"  style="stroke:black; stroke-linecap:round; stroke-width:0.25;"/>
<line x1="128.000000" y1="94.000000" x2="132.000000" y2="94.000000"  style="stroke:black; stroke-linecap:round; stroke-width:0.25;"/>
<line x1="128.000000" y1="102.000000" x2="132.000000" y2="102.000000"  style="stroke:black; stroke-linecap:round; stroke-width:0.25;"/>
<line x1="144.000000" y1="70.000000" x2="160.000000" y2="70.000000"  style="stroke:black; stroke-linecap:round; stroke-width:0.25;"/>
<line x1="144.000000" y1="78.000000" x2="160.000000" y2="78.000000"  style="stroke:black; stroke-linecap:round; stroke-width:0.25;"/>
<line x1="156.000000" y1="98.000000" x2="160.000000" y2="98.000000"  style="stroke:black; stroke-linecap:round; stroke-width:0.25;"/>
<line x1="160.000000" y1="34.000000" x2="176.000000" y2="34.000000"  style="stroke:black; stroke-linecap:round; stroke-width:0.25;"/>
<line x1="160.000000" y1="70.000000" x2="160.000000" y2="34.000000"  style="stroke:black; stroke-linecap:round; stroke-width:0.25;"/>
<line x1="160.000000" y1="70.000000" x2="160.000000" y2="70.000000"  style="stroke:black; stroke-linecap:round; stroke-width:0.25;"/>
<line x1="160.000000" y1="78.000000" x2="168.000000" y2="78.000000"  style="stroke:black; stroke-linecap:round; stroke-width:0.25;"/>
<line x1="160.000000" y1="98.000000" x2="176.000000" y2="98.000000"  style="stroke:black; stroke-linecap:round; stroke-width:0.25;"/>
<line x1="168.000000" y1="74.000000" x2="176.000000" y2="74.000000"  style="stroke:black; stroke-linecap:round; stroke-width:0.25;"/>
<line x1="168.000000" y1="78.000000" x2="168.000000" y2="74.000000"  style="stroke:black; stroke-linecap:round; stroke-width:0.25;"/>
<line x1="176.000000" y1="34.000000" x2="186.000000" y2="34.000000"  style="stroke:black; stroke-linecap:round; stroke-width:0.25;"/>
<line x1="176.000000" y1="74.000000" x2="186.000000" y2="74.000000"  style="stroke:black; stroke-linecap:round; stroke-width:0.25;"/>
<line x1="176.000000" y1="98.000000" x2="176.000000" y2="114.000000"  style="stroke:black; stroke-linecap:round; stroke-width:0.25;"/>
<line x1="176.000000" y1="114.000000" x2="176.000000" y2="114.000000"  style="stroke:black; stroke-linecap:round; stroke-width:0.25;"/>
<line x1="176.000000" y1="114.000000" x2="186.000000" y2="114.000000"  style="stroke:black; stroke-linecap:round; stroke-width:0.25;"/>
<line x1="186.000000" y1="34.000000" x2="254.500000" y2="34.000000"  style="stroke:black; stroke-linecap:round; stroke-width:0.25;"/>
<line x1="186.000000" y1="74.000000" x2="254.500000" y2="74.000000"  style="stroke:black; stroke-linecap:round; stroke-width:0.25;"/>
<line x1="186.000000" y1="114.000000" x2="254.500000" y2="114.000000"  style="stroke:black; stroke-linecap:round; stroke-width:0.25;"/>
<line x1="254.500000" y1="34.000000" x2="323.000000" y2="34.000000"  style="stroke:black; stroke-linecap:round; stroke-width:0.25;"/>
<line x1="254.500000" y1="74.000000" x2="323.000000" y2="74.000000"  style="stroke:black; stroke-linecap:round; stroke-width:0.25;"/>
<line x1="254.500000" y1="114.000000" x2="323.000000" y2="114.000000"  style="stroke:black; stroke-linecap:round; stroke-width:0.25;"/>
<line x1="319.000000" y1="54.000000" x2="323.000000" y2="54.000000"  style="stroke:black; stroke-linecap:round; stroke-width:0.25;"/>
<line x1="319.000000" y1="94.000000" x2="323.000000" y2="94.000000"  style="stroke:black; stroke-linecap:round; stroke-width:0.25;"/>
<line x1="319.000000" y1="134.000000" x2="323.000000" y2="134.000000"  style="stroke:black; stroke-linecap:round; stroke-width:0.25;"/>
<line x1="323.000000" y1="34.000000" x2="331.000000" y2="34.000000"  style="stroke:black; stroke-linecap:round; stroke-width:0.25;"/>
<line x1="323.000000" y1="54.000000" x2="331.000000" y2="54.000000"  style="stroke:black; stroke-linecap:round; stroke-width:0.25;"/>
<line x1="323.000000" y1="74.000000" x2="331.000000" y2="74.000000"  style="stroke:black; stroke-linecap:round; stroke-width:0.25;"/>
<line x1="323.000000" y1="94.000000" x2="331.000000" y2="94.000000"  style="stroke:black; stroke-linecap:round; stroke-width:0.25;"/>
<line x1="323.000000" y1="114.000000" x2="331.000000" y2="114.000000"  style="stroke:black; stroke-linecap:round; stroke-width:0.25;"/>
<line x1="323.000000" y1="134.000000" x2="331.000000" y2="134.000000"  style="stroke:black; stroke-linecap:round; stroke-width:0.25;"/>
<line x1="331.000000" y1="34.000000" x2="331.000000" y2="46.000000"  style="stroke:black; stroke-linecap:round; stroke-width:0.25;"/>
<line x1="331.000000" y1="46.000000" x2="331.000000" y2="46.000000"  style="stroke:black; stroke-linecap:round; stroke-width:0.25;"/>
<line x1="331.000000" y1="46.000000" x2="335.000000" y2="46.000000"  style="stroke:black; stroke-linecap:round; stroke-width:0.25;"/>
<line x1="331.000000" y1="54.000000" x2="335.000000" y2="54.000000"  style="stroke:black; stroke-linecap:round; stroke-width:0.25;"/>
<line x1="331.000000" y1="74.000000" x2="331.000000" y2="86.000000"  style="stroke:black; stroke-linecap:round; stroke-width:0.25;"/>
<line x1="331.000000" y1="86.000000" x2="331.000000" y2="86.000000"  style="stroke:black; stroke-linecap:round; stroke-width:0.25;"/>
<line x1="331.000000" y1="86.000000" x2="335.000000" y2="86.000000"  style="stroke:black; stroke-linecap:round; stroke-width:0.25;"/>
<line x1="331.000000" y1="94.000000" x2="335.000000" y2="94.000000"  style="stroke:black; stroke-linecap:round; stroke-width:0.25;"/>
<line x1="331.000000" y1="114.000000" x2="331.000000" y2="126.000000"  style="stroke:black; stroke-linecap:round; stroke-width:0.25;"/>
<line x1="331.000000" y1="126.000000" x2="331.000000" y2="126.000000"  style="stroke:black; stroke-linecap:round; stroke-width:0.25;"/>
<line x1="331.000000" y1="126.000000" x2="335.000000" y2="126.000000"  style="stroke:black; stroke-linecap:round; stroke-width:0.25;"/>
<line x1="331.000000" y1="134.000000" x2="335.000000" y2="134.000000"  style="stroke:black; stroke-linecap:round; stroke-width:0.25;"/>
<line x1="359.000000" y1="50.000000" x2="363.000000" y2="50.000000"  style="stroke:black; stroke-linecap:round; stroke-width:0.25;"/>
<line x1="359.000000" y1="90.000000" x2="363.000000" y2="90.000000"  style="stroke:black; stroke-linecap:round; stroke-width:0.25;"/>
<line x1="359.000000" y1="130.000000" x2="363.000000" y2="130.000000"  style="stroke:black; stroke-linecap:round; stroke-width:0.25;"/>
<line x1="363.000000" y1="50.000000" x2="373.000000" y2="50.000000"  style="stroke:black; stroke-linecap:round; stroke-width:0.25;"/>
<line x1="363.000000" y1="90.000000" x2="373.000000" y2="90.000000"  style="stroke:black; stroke-linecap:round; stroke-width:0.25;"/>
<line x1="363.000000" y1="130.000000" x2="373.000000" y2="130.000000"  style="stroke:black; stroke-linecap:round; stroke-width:0.25;"/>
<line x1="373.000000" y1="50.000000" x2="383.000000" y2="50.000000"  style="stroke:black; stroke-linecap:round; stroke-width:0.25;"/>
<line x1="373.000000" y1="90.000000" x2="383.000000" y2="90.000000"  style="stroke:black; stroke-linecap:round; stroke-width:0.25;"/>
<line x1="373.000000" y1="130.000000" x2="383.000000" y2="130.000000"  style="stroke:black; stroke-linecap:round; stroke-width:0.25;"/>
</svg>
